# xmcd
#
# Track frame offsets: 
#        150
#        21075
#        33525
#        55500
#        85125
#        108075
#        144375
#        164550
#        183225
#        203250
#        231300
#        260025
#        281850
#
# Disc length: 4159 seconds
#
# Revision: 0
# Processed by: cddbd v1.5.2PL0 Copyright (c) Steve Scherf et al.
# Submitted via: ExactAudioCopy v0.95b4
#
DISCID=ad103d0d
DTITLE=Coolish Blues Session - Blues Navigator live in Harenda
DYEAR=2005
DGENRE=Blues
TTITLE0=Gdy jestem sam
TTITLE1=Moja mam powiedzia³a
TTITLE2=Kolybo³ sie chop
TTITLE3=Bukka White
TTITLE4=Blues is the king
TTITLE5=Sikora blues
TTITLE6=Ma³a (My Babe)
TTITLE7=Blues Kubusia Puchatka
TTITLE8=Chopek pi³a blues
TTITLE9=Czarny z Alabamy
TTITLE10=Jesli mnie kochasz (blues dla Kfiatka)
TTITLE11=Zielony krzak
TTITLE12=Mississippi
EXTD=
EXTT0=
EXTT1=
EXTT2=
EXTT3=
EXTT4=
EXTT5=
EXTT6=
EXTT7=
EXTT8=
EXTT9=
EXTT10=
EXTT11=
EXTT12=
PLAYORDER=
